<?xml version="1.0" encoding="utf-8"?>
<!-- Generator: Adobe Illustrator 16.0.0, SVG Export Plug-In . SVG Version: 6.00 Build 0)  -->
<!DOCTYPE svg PUBLIC "-//W3C//DTD SVG 1.1//EN" "http://www.w3.org/Graphics/SVG/1.1/DTD/svg11.dtd">
<svg version="1.1" id="Layer_1" xmlns="http://www.w3.org/2000/svg" xmlns:xlink="http://www.w3.org/1999/xlink" x="0px" y="0px"
	 width="64px" height="64px" viewBox="0 0 64 64" enable-background="new 0 0 64 64" xml:space="preserve">
<path fill="#010101" d="M21.385,52.76H8.173c-0.521,0-0.944-0.422-0.944-0.941V12.183c0-0.521,0.423-0.944,0.944-0.944h13.211
	c0.521,0,0.943,0.423,0.943,0.944v39.636C22.329,52.338,21.905,52.76,21.385,52.76z"/>
<path fill="#010101" d="M47.809,52.76H34.596c-0.52,0-0.943-0.422-0.943-0.941V12.183c0-0.521,0.424-0.944,0.943-0.944h13.213
	c0.518,0,0.943,0.423,0.943,0.944v39.636C48.752,52.338,48.326,52.76,47.809,52.76z"/>
</svg>
