<?xml version="1.0" encoding="utf-8"?>
<!-- Generator: Adobe Illustrator 16.0.0, SVG Export Plug-In . SVG Version: 6.00 Build 0)  -->
<!DOCTYPE svg PUBLIC "-//W3C//DTD SVG 1.1//EN" "http://www.w3.org/Graphics/SVG/1.1/DTD/svg11.dtd">
<svg version="1.1" id="Layer_1" xmlns="http://www.w3.org/2000/svg" xmlns:xlink="http://www.w3.org/1999/xlink" x="0px" y="0px"
	 width="64px" height="64px" viewBox="0 0 64 64" enable-background="new 0 0 64 64" xml:space="preserve">
<g>
	<path fill="#010101" d="M36.767,8.541c-0.355-0.185-0.784-0.156-1.11,0.075L17.401,21.468H11.04c-0.592,0-1.072,0.48-1.072,1.072
		v20.016c0,0.594,0.48,1.074,1.072,1.074h6.362l18.255,12.849c0.184,0.129,0.398,0.197,0.617,0.197c0.168,0,0.337-0.039,0.493-0.122
		c0.356-0.185,0.578-0.551,0.578-0.951V9.493C37.345,9.093,37.123,8.726,36.767,8.541z"/>
	<path fill="#010101" d="M17.35,4.824"/>
	<path fill="#010101" d="M41.308,47.649c-0.198,0-0.395-0.053-0.577-0.156c-0.544-0.319-0.729-1.021-0.411-1.563
		c2.362-4.046,3.611-8.672,3.611-13.382c0-4.99-1.393-9.854-4.022-14.065c-0.334-0.535-0.172-1.241,0.363-1.576
		c0.536-0.334,1.241-0.172,1.576,0.364c2.858,4.574,4.369,9.856,4.369,15.277c0,5.115-1.355,10.141-3.921,14.535
		C42.083,47.443,41.699,47.649,41.308,47.649z"/>
	<path fill="#010101" d="M47.354,52.179c-0.216,0-0.434-0.06-0.627-0.188c-0.528-0.349-0.673-1.058-0.325-1.585
		c3.496-5.303,5.345-11.479,5.345-17.858c0-6.511-1.918-12.791-5.548-18.163c-0.353-0.524-0.215-1.234,0.309-1.587
		c0.523-0.354,1.232-0.214,1.588,0.308c3.884,5.751,5.938,12.475,5.938,19.442c0,6.829-1.978,13.441-5.722,19.118
		C48.091,51.999,47.726,52.179,47.354,52.179z"/>
</g>
</svg>
